<svg id="svg" xmlns="http://www.w3.org/2000/svg" xmlns:xlink="http://www.w3.org/1999/xlink" width="400" height="400" viewBox="0, 0, 400,400"><g id="svgg"><path id="path0" d="M230.388 25.406 C 227.989 26.156,225.626 28.238,223.696 31.301 C 221.274 35.145,31.390 363.646,30.012 366.376 C 27.894 370.571,28.465 373.348,31.699 374.582 C 34.456 375.634,82.366 375.337,84.400 374.256 C 88.409 372.125,82.112 382.527,140.011 282.400 C 200.816 177.247,228.895 128.691,234.953 118.221 C 243.335 103.731,246.448 102.409,249.369 112.099 C 255.229 131.539,263.370 164.009,263.385 168.000 L 263.400 172.200 261.378 176.000 C 260.265 178.090,235.261 221.469,205.814 272.398 C 144.263 378.849,149.108 369.977,151.024 372.713 C 152.669 375.062,151.906 375.000,179.200 375.000 L 204.200 375.000 206.091 374.069 C 209.201 372.537,210.996 370.005,220.064 354.354 C 281.393 248.504,279.977 250.877,282.374 249.943 C 283.718 249.419,285.408 250.186,286.347 251.747 C 287.529 253.711,288.138 255.853,299.209 297.000 C 321.018 378.047,318.758 370.322,321.356 372.717 C 323.990 375.144,324.599 375.202,347.320 375.182 C 369.956 375.163,370.511 375.102,372.291 372.441 C 373.961 369.944,373.825 369.289,364.034 332.779 C 358.992 313.981,349.078 277.000,342.003 250.600 C 334.927 224.200,327.941 198.190,326.478 192.800 C 322.002 176.309,320.771 180.411,340.384 146.428 C 357.496 116.777,357.271 117.244,355.815 114.430 C 354.498 111.882,354.091 111.837,330.400 111.607 L 309.000 111.400 307.124 110.297 C 305.622 109.414,305.005 108.695,304.034 106.697 C 302.696 103.943,302.898 104.656,291.807 63.600 C 281.672 26.082,282.391 28.169,278.889 26.111 L 277.000 25.000 254.600 24.920 C 236.224 24.854,231.874 24.941,230.388 25.406 " stroke="none" fill="#fafafa" fill-rule="evenodd"></path><path id="path1" d="M0.000 200.000 L 0.000 400.000 200.000 400.000 L 400.000 400.000 400.000 200.000 L 400.000 0.000 200.000 0.000 L 0.000 0.000 0.000 200.000 M278.889 26.111 C 282.391 28.169,281.672 26.082,291.807 63.600 C 302.898 104.656,302.696 103.943,304.034 106.697 C 305.005 108.695,305.622 109.414,307.124 110.297 L 309.000 111.400 330.400 111.607 C 354.091 111.837,354.498 111.882,355.815 114.430 C 357.271 117.244,357.496 116.777,340.384 146.428 C 320.771 180.411,322.002 176.309,326.478 192.800 C 327.941 198.190,334.927 224.200,342.003 250.600 C 349.078 277.000,358.992 313.981,364.034 332.779 C 373.825 369.289,373.961 369.944,372.291 372.441 C 370.511 375.102,369.956 375.163,347.320 375.182 C 324.599 375.202,323.990 375.144,321.356 372.717 C 318.758 370.322,321.018 378.047,299.209 297.000 C 288.138 255.853,287.529 253.711,286.347 251.747 C 285.408 250.186,283.718 249.419,282.374 249.943 C 279.977 250.877,281.393 248.504,220.064 354.354 C 210.996 370.005,209.201 372.537,206.091 374.069 L 204.200 375.000 179.200 375.000 C 151.906 375.000,152.669 375.062,151.024 372.713 C 149.108 369.977,144.263 378.849,205.814 272.398 C 235.261 221.469,260.265 178.090,261.378 176.000 L 263.400 172.200 263.385 168.000 C 263.370 164.009,255.229 131.539,249.369 112.099 C 246.448 102.409,243.335 103.731,234.953 118.221 C 228.895 128.691,200.816 177.247,140.011 282.400 C 82.112 382.527,88.409 372.125,84.400 374.256 C 82.366 375.337,34.456 375.634,31.699 374.582 C 28.465 373.348,27.894 370.571,30.012 366.376 C 31.390 363.646,221.274 35.145,223.696 31.301 C 227.855 24.700,227.266 24.822,254.600 24.920 L 277.000 25.000 278.889 26.111 " stroke="none" fill="#242424" fill-rule="evenodd"></path></g></svg>